<svg xmlns="http://www.w3.org/2000/svg" viewBox="0 0 50 50"><defs><style>.a{fill:#1d1e1e;}.b{fill:#fff;}</style></defs><path class="a" d="M42.93,30.48c-6.23,5-11.16,2.58-13.76.68h0s.15,11.47-12.85,10.77C4.17,41.27.57,29.35,2.24,21.82a15.49,15.49,0,0,1,4.37-6.61c4.44-3.85,10.52-6.74,11.67-8.38a6.944,6.944,0,0,1-2.35,3.95c-2.09,1.82-7.68,5.3-8.12,12.42S13.22,35,17.44,34.55a4.88,4.88,0,0,0,4.65-4.12c.18-1.46-.44-3.82-3.77-4l13-2.13s2.53,2.44,5,1.11a7.27,7.27,0,0,0,3.77-8.43C39,12.73,36.6,10.46,34.12,8.43,31.41,6.21,24.85,2.88,24.45,0a24.489,24.489,0,0,0,6.74,3.5c3.26,1.09,12.2,5.42,15.48,12.69l.09.21v.06S49.09,25.59,42.93,30.48Z"/><path class="a" d="M19.9,49.46C12.4,47.78,5.45,42.29,2.67,35a19,19,0,0,1-.43-13.13C.57,29.35,4.17,41.27,16.32,41.93c13,.7,12.85-10.77,12.85-10.77h0C29.25,31.47,31.9,42,19.9,49.46Z"/><path class="a" d="M46.36,36.56c-2.42.64-11.3,2.36-17.19-5.4,2.6,1.9,7.53,4.28,13.76-.68s3.83-14,3.83-14V16.4A24.55,24.55,0,0,1,46.36,36.56Z"/><path class="a" d="M46.36,36.56A21.426,21.426,0,0,1,44.27,40a25.208,25.208,0,0,1-3.19,3.57c-7.81-3.79-11.66-11.88-11.9-12.4a23.391,23.391,0,0,1,.38,18.35,23.9,23.9,0,0,1-6.31.42,22.547,22.547,0,0,1-3.35-.49c12-7.43,9.35-18,9.27-18.29h0C35.06,38.92,43.94,37.2,46.36,36.56Z"/><path class="a" d="M29.56,49.53a23.391,23.391,0,0,0-.38-18.35c.24.52,4.09,8.61,11.9,12.4A23.889,23.889,0,0,1,29.56,49.53Z"/><path class="a" d="M28.66,18.91a18.9,18.9,0,0,1-4.82,1.89c-6.62,1.67-7.89,4.69-7.66,6.49,0,0-1.43-2.48,2.3-5.3,2.18-1.65,8.68-3.25,10.25-8.44A9,9,0,0,1,28.66,18.91Z"/><path class="a" d="M28.66,18.91a8.255,8.255,0,0,1-1.51,2.72c-.14.18-.28.34-.43.5a16.859,16.859,0,0,0-6.84,1.05c-2.37,1.05-3.7,4.11-3.7,4.11-.23-1.8,1-4.82,7.66-6.49A18.9,18.9,0,0,0,28.66,18.91Z"/><path class="a" d="M32.17,21.39a15.492,15.492,0,0,1-4.49.73h-1c.15-.16.29-.32.43-.5a8.255,8.255,0,0,0,1.51-2.72,11.547,11.547,0,0,0,4.06-3.5A10.807,10.807,0,0,1,32.17,21.39Z"/><path class="a" d="M19.88,23.18c-2.37,1.05-3.7,4.11-3.7,4.11h0A5.206,5.206,0,0,1,18,26.55c1-.28,2.16-.53,3.1-.85l.16-.05a13.543,13.543,0,0,0,5.51-3.52A16.854,16.854,0,0,0,19.88,23.18Z"/><path class="a" d="M32.17,21.39a6.187,6.187,0,0,1-1,1.48,10.13,10.13,0,0,1-7.57,3.49H20.3a6.766,6.766,0,0,0-.78,0h-.16a7.932,7.932,0,0,0-1.43.21c1-.28,2.16-.53,3.1-.85l.16-.05a13.543,13.543,0,0,0,5.51-3.52h1A15.51,15.51,0,0,0,32.17,21.39Z"/><path class="a" d="M29.87,25.73a33.222,33.222,0,0,1-6.22.63,10.13,10.13,0,0,0,7.57-3.49,6.187,6.187,0,0,0,1-1.48,5.293,5.293,0,0,0,2.73-1.63A6,6,0,0,1,29.87,25.73Z"/><path class="b" d="M19.16,23.91a4.543,4.543,0,0,1,1.38-.78c.54-.16,1.15-.12,1.22.52s-.35.68-.82.69A5.72,5.72,0,0,1,19.16,23.91Z"/></svg>